<?xml version="1.0" encoding="UTF-8"?>
<svg xmlns="http://www.w3.org/2000/svg" viewBox="0 0 525.48 444.26">
  <defs>
    <style>
      .cls-1 {
        letter-spacing: .06em;
      }

      .cls-2 {
        letter-spacing: -.05em;
      }

      .cls-2, .cls-3, .cls-4 {
        fill: #299dd8;
      }

      .cls-5, .cls-3, .cls-6, .cls-7, .cls-8 {
        stroke-width: 0px;
      }

      .cls-5, .cls-3, .cls-7, .cls-8 {
        fill-rule: evenodd;
      }

      .cls-5, .cls-6 {
        fill: #1e4382;
      }

      .cls-9 {
        letter-spacing: .08em;
      }

      .cls-10 {
        font-family: Gotham-Book, Gotham;
        font-size: 60px;
      }

      .cls-7, .cls-11 {
        fill: #0f76bc;
      }

      .cls-8 {
        fill: #1c4584;
      }

      .cls-11 {
        letter-spacing: .01em;
      }
    </style>
  </defs>
  <g id="Angel_Logo" data-name="Angel Logo">
    <g>
      <path class="cls-6" d="m359.74,368.32c1.92-.84,4.86.21,5.53,1.58-1.69,3.9-11.52,27.18-15.13,36.77-.68,1.79-.11,2.42.79,2.42,1.92,0,5.19-1.79,11.63-7.06.79,0,1.58.53,1.58,1.37-4.74,5.9-12.76,11.8-18.97,11.8-2.6,0-3.28-2-3.28-2.84,0-.74.23-1.68,1.13-4.11l3.73-9.48-.34-.1c-8.02,9.27-19.54,16.54-24.84,16.54-3.16,0-4.97-2.95-4.97-5.9,0-2.42,2.48-10.85,9.94-20.44,5.42-6.95,10.28-11.17,14.91-13.59,4.4-2.32,7.23-3.06,10.16-3.06,1.24,0,2.03.32,2.71.63.45.21,1.69,1.16,2.26,2.21l3.16-6.74Zm-19.65,12.01c-7.23,6-11.86,18.68-11.86,26.16,0,1.27.68,2,1.69,2,1.13,0,2.26-.24,8.69-5.72,8.58-7.48,13.32-16.54,15.13-22.76-.79-2-2.71-3.79-5.65-3.79-2.71,0-4.52,1.16-8.02,4.11"/>
      <path class="cls-6" d="m379.61,393.5l.34.21c8.02-11.38,19.2-22.97,27.67-22.97,4.4,0,6.32,2.21,6.32,5.69,0,1.69-.9,4.95-1.81,7.37-2.03,5.27-10.16,22.44-10.5,23.28-.45,1.05-.56,2,.23,2,1.92,0,7.34-3.48,10.61-7.16,1.58-.21,1.81.63,1.81,1.47-4.29,6.74-13.21,11.8-19.42,11.8-1.02,0-2.71-1.37-2.71-2.63,0-.95-.79-.93,1.58-6.2,2.37-5.16,6.55-15.49,9.15-20.75.9-1.9,2.37-5.58,2.37-7.69,0-1.26-.11-2.53-1.81-2.53-2.71,0-8.24,5.27-14.45,12.54-5.99,6.95-7.6,14.04-14.26,25.63-.57.95-1.02,1.26-2.03,1.26-1.24,0-7.3.06-6.29-2.36.56-1.37,12.53-31.71,13.1-33.18.56-1.37.56-2.42-.34-2.42-2.6,0-6.55,2.21-10.28,5.27-.9,0-1.47-.74-1.36-1.58,4.29-5.48,11.18-9.8,16.83-9.8,2.71,0,3.95,1.9,2.94,4.32l-7.68,18.44Z"/>
      <path class="cls-6" d="m492.53,377.07c0,8.01-11.18,13.27-27.44,17.49-.79,1.79-1.58,5.16-1.58,9.38,0,3.58,2.37,6.01,5.42,6.01,4.07,0,6.89-2.11,11.86-6.11,1.02,0,1.69.84,1.47,1.79-6.89,7.9-13.33,9.59-18.07,9.59-6.78,0-9.15-5.9-9.15-11.06,0-6.64,4.52-19.49,16.83-28.34,5.87-4.21,10.28-5.06,13.55-5.06,4.52,0,7.11,3.58,7.11,6.32m-17.95,2c-4.4,4.42-7,9.27-8.36,12.33,7.45-2.11,10.95-4.11,15.13-7.8,3.5-3.05,4.4-6.22,4.4-7.16,0-1.05-.56-2.42-2.6-2.42-1.58,0-4.52.95-8.58,5.06"/>
      <path class="cls-6" d="m495.36,406.88c-.9,2.42-.79,3.48.45,3.48,2.48,0,7.79-5.16,12.99-10.64,1.13-.1,1.81.42,1.81,1.48-2.94,5.27-10.05,14.01-19.42,14.01-3.39,0-4.4-1.48-4.4-3.16s.56-3.58,2.48-8.95l17.95-49.83c2.71-7.37,1.58-8.43-.11-9.16l-2.03-.84c-.56-.42-.56-1.37,0-1.69,2.03-.74,9.03-2.74,14.23-3.16l.56.63c-1.47,3.79-2.6,6.74-6.66,18.12l-17.84,49.72Z"/>
      <path class="cls-5" d="m425.94,369.65c2.98-1.3,6.61-1.95,10.24-1.94,3.62,0,7.25.67,10.22,1.99,2.6,1.15,4.75,2.76,6.29,4.66-.93-2.09-2.11-4.15-3.3-5.98-1.81-2.8-3.64-5.1-4.59-6.25-.7-.85-1.64-1.54-2.72-2.06-1.73-.84-3.82-1.26-5.91-1.26h0c-2.09,0-4.18.42-5.91,1.26-1.08.52-2.01,1.21-2.72,2.06-.95,1.15-2.81,3.45-4.65,6.25-1.2,1.83-2.4,3.87-3.33,5.95,1.56-1.92,3.73-3.53,6.37-4.68"/>
      <path class="cls-6" d="m452.6,387.73c1.56-3.22,1.55-6.38.35-9.11-1.18-2.69-3.52-4.97-6.66-6.52,0,0-3.46,9.41-23.69,36.45-7.56,10.1-11.35,15.56-18.93,24.74,0,0,6.1,2.59,9.2,7.23,2.14,3.19,3.88,3.76,4.86,3.76.54,0,.85-.18.85-.18,0,0,4.54-8.07,13.32-22.42,12.46-20.38,20.7-33.94,20.7-33.94"/>
      <path class="cls-6" d="m431.05,381.33c-3.57-5.61-5.11-9.24-5.11-9.24-3.12,1.54-5.45,3.81-6.64,6.48-1.21,2.74-1.7,6.02.67,9.64,2.56,3.9,5.13,8.37,6.85,11.45,3.32-4.61,6.04-8.57,8.26-11.94-.97-1.54-2.32-3.7-4.04-6.39"/>
      <path class="cls-6" d="m454.08,416.19c-5.67-10.33-6.39-9.82-8.75-12.97-2.37,3.89-5.16,8.46-8.27,13.55,1.31,2.47,1.25,2.28,2.05,4.25,1.52,3.75,2.07,6.7,2.07,6.7.03.05,3.81.56,7.09-.27,6.19-1.57,11,1.07,11,1.04-.2-1.31-1.51-5.6-5.19-12.3"/>
      <path class="cls-6" d="m435.79,434.85h1.44v-.66c0-2.01,1.17-2.35,2.42-2.35.61,0,1.05.03,1.36.11v1.36c-.25-.06-.51-.09-.9-.09-.52,0-.95.17-.95.82v.81h1.64v1.3h-1.64v6.59h-1.93v-6.59h-1.44v-1.3Z"/>
      <path class="cls-6" d="m441.59,438.78c0-2.41,1.61-4.15,4.42-4.15s4.42,1.74,4.42,4.15-1.61,4.16-4.42,4.16-4.42-1.74-4.42-4.16m6.91,0c0-1.36-.76-2.77-2.49-2.77s-2.49,1.42-2.49,2.77.76,2.79,2.49,2.79,2.49-1.42,2.49-2.79"/>
      <path class="cls-6" d="m459.73,442.73h-1.9v-1.1h-.03c-.47.79-1.52,1.31-2.49,1.31-2.29,0-3.27-1.04-3.27-3.09v-5h1.93v4.83c0,1.39.63,1.89,1.68,1.89,1.61,0,2.15-.93,2.15-2.15v-4.57h1.93v7.88Z"/>
      <path class="cls-6" d="m461.76,434.85h1.83v1.16l.03.03c.58-.87,1.58-1.4,2.73-1.4,1.9,0,3.1.91,3.1,2.68v5.41h-1.93v-4.95c-.03-1.24-.58-1.77-1.71-1.77-1.29,0-2.12.91-2.12,2.07v4.65h-1.93v-7.88Z"/>
      <path class="cls-6" d="m479.74,442.73h-1.83v-1.07h-.03c-.51.9-1.61,1.28-2.71,1.28-2.76,0-4.1-1.85-4.1-4.21,0-2.85,1.88-4.1,3.79-4.1,1.1,0,2.32.37,2.91,1.23h.03v-4.02h1.93v10.88Zm-4.32-1.16c1.73,0,2.46-1.42,2.46-2.79,0-1.74-.93-2.77-2.42-2.77-1.81,0-2.46,1.45-2.46,2.87s.75,2.7,2.42,2.7"/>
      <path class="cls-6" d="m489.18,440.98c0,.43.1.59.46.59.12,0,.27,0,.47-.03v1.2c-.29.09-.9.2-1.22.2-.78,0-1.34-.24-1.49-.96-.76.67-2,.96-3.03.96-1.58,0-3-.76-3-2.3,0-1.97,1.74-2.29,3.37-2.45,1.39-.23,2.63-.09,2.63-1.11,0-.9-1.03-1.07-1.81-1.07-1.08,0-1.85.4-1.93,1.25h-1.93c.14-2.03,2.05-2.62,3.98-2.62,1.71,0,3.51.63,3.51,2.29v4.06Zm-1.93-2.2c-.59.35-1.52.34-2.37.47-.83.12-1.58.4-1.58,1.31,0,.78,1.1,1.01,1.78,1.01.85,0,2.17-.4,2.17-1.49v-1.3Z"/>
      <path class="cls-6" d="m490.38,434.85h1.46v-2.36h1.93v2.36h1.75v1.3h-1.75v4.21c0,.72.07,1.08.93,1.08.27,0,.54,0,.81-.06v1.34c-.42.03-.83.09-1.25.09-2.02,0-2.39-.7-2.42-2.01v-4.65h-1.46v-1.3Z"/>
      <path class="cls-6" d="m496.95,431.85h1.93v1.65h-1.93v-1.65Zm0,3h1.93v7.88h-1.93v-7.88Z"/>
      <path class="cls-6" d="m500.58,438.78c0-2.41,1.61-4.15,4.42-4.15s4.42,1.74,4.42,4.15-1.61,4.16-4.42,4.16-4.42-1.74-4.42-4.16m6.91,0c0-1.36-.76-2.77-2.49-2.77s-2.49,1.42-2.49,2.77.76,2.79,2.49,2.79,2.49-1.42,2.49-2.79"/>
      <path class="cls-6" d="m511.03,434.85h1.83v1.16l.03.03c.58-.87,1.58-1.4,2.73-1.4,1.9,0,3.1.91,3.1,2.68v5.41h-1.93v-4.95c-.03-1.24-.58-1.77-1.71-1.77-1.29,0-2.12.91-2.12,2.07v4.65h-1.93v-7.88Z"/>
      <g>
        <path class="cls-6" d="m511.5,410.01h-1.74v-.54h4.08v.54h-1.74v4.65h-.59v-4.65Z"/>
        <path class="cls-6" d="m514.93,409.47h.59l1.89,2.83,1.89-2.83h.59v5.19h-.59v-4.21l-1.89,2.78h-.03l-1.89-2.77v4.2h-.57v-5.19Z"/>
      </g>
    </g>
  </g>
  <g id="ribbon_dk_blue" data-name="ribbon dk blue">
    <path class="cls-8" d="m304.36,10.54c-79.27,27.54-105.56,88.2-109.97,129.88-2.7,25.53,2.45,44.12,2.45,44.12,0,0,8.52,10.28,17.53,19.63,10.12,10.5,20.87,20.21,20.87,20.21,0,0-21.52-27.11,6.72-97.68,31.9-79.72,120.46-91.46,158.24-85.99,49.99,7.24,78.88,39.91,78.88,39.91,0,0-50.11-113.37-174.72-70.08ZM14.32,93.1S1.72,114.74,2.44,133.18c.55,14.2,4,56.31,63.45,108.85,3.28-16.7,6.64-34.07,9.87-51.25,2.15-11.41,3.99-21.89,5.56-31.51C45.48,127.16,14.32,93.1,14.32,93.1Zm132.57,117.21c-3.2,22.59-7.41,46.55-12.09,70.71-.73,3.76-1.42,7.48-2.07,11.15,46.73,29.75,85.44,43.1,118.35,51.73,59.94,15.7,125.52-7.8,142.8-18.24-77.16,1.95-182.71-70.22-246.99-115.35Z"/>
  </g>
  <g id="ribbon_med_blue" data-name="ribbon med blue">
    <path class="cls-7" d="m447.4,33.1s80.25,63.51,37.68,183.84c-41.67,117.81-145.2,130.8-145.2,130.8,0,0,167.41-8.31,181.44-137.28,13.19-121.18-73.92-177.36-73.92-177.36ZM91.48,55.06s8.19,22.69-12.48,135.72c-14.82,81.04-47.04,224.16-47.04,224.16l72.24,28.08s16.57-106.34,27.36-162c16.65-85.9,27.4-167.99,7.44-195.6-21.66-29.96-47.52-30.36-47.52-30.36Z"/>
  </g>
  <g id="ribbon_lt_blue" data-name="ribbon lt blue">
    <path class="cls-3" d="m1,128.74c-.02-1.58-.03-3.13-.05-4.66-.07,1.76-.04,3.33.05,4.66ZM25,14.02C-4.08,27.69.07,56.85.94,124.08c.6-16.24,9.33-49.13,54.29-66.98,47.29-18.77,72.49,12.67,76.8,16.32C96.76,36.34,60.73-2.77,25,14.02Z"/>
  </g>
  <g id="Text">
    <text class="cls-10" transform="translate(275.86 137.77)"><tspan class="cls-4"><tspan class="cls-9" x="0" y="0">B</tspan><tspan class="cls-1" x="47.94" y="0">L</tspan><tspan class="cls-9" x="88.5" y="0">UE</tspan></tspan><tspan class="cls-11"><tspan x="-35.46" y="49.5">RIBBON</tspan></tspan><tspan class="cls-2"><tspan x="-16.44" y="99">CIRCLE</tspan></tspan></text>
  </g>
</svg>